<svg width="867" height="459" viewBox="0 0 867 459" fill="none" xmlns="http://www.w3.org/2000/svg">
<path d="M745.584 347.852V227.417H377.667V347.846C377.667 351.444 379.6 354.765 382.729 356.542L556.89 455.443C559.955 457.184 563.711 457.182 566.774 455.438L740.53 356.543C743.654 354.765 745.584 351.447 745.584 347.852Z" fill="#00326C"/>
<path d="M565.968 120.294L740.122 219.805C746.29 223.329 746.294 232.221 740.13 235.752L566.404 335.243C563.579 336.861 560.109 336.862 557.282 335.247L383.129 235.736C376.961 232.212 376.956 223.32 383.121 219.79L556.846 120.299C559.671 118.681 563.141 118.679 565.968 120.294Z" fill="#0E1928" stroke="#00326C" stroke-width="1.66667"/>
<path d="M715.168 250.2V144.916H408.502V250.2L557.063 334.606C560.129 336.348 563.887 336.347 566.951 334.602L715.168 250.2Z" fill="#165BAD"/>
<path d="M715.168 250.2V144.916H408.502V250.2L557.063 334.606C560.129 336.348 563.887 336.347 566.951 334.602L715.168 250.2Z" fill="url(#paint0_diamond_1894_97138)" fill-opacity="0.2"/>
<path d="M565.386 55.9088L710.547 138.819C715.595 141.703 715.598 148.976 710.554 151.864L565.75 234.759C563.438 236.082 560.597 236.084 558.284 234.762L413.123 151.852C408.075 148.968 408.072 141.695 413.116 138.807L557.92 55.9125C560.232 54.5889 563.073 54.5875 565.386 55.9088Z" fill="#0E1928" stroke="#165BAD" stroke-width="1.66667"/>
<path d="M676.691 171.176V92.0083H447.577V171.123L558.407 234.457C560.797 235.822 563.73 235.821 566.118 234.454L676.691 171.176Z" fill="#196ED2"/>
<path d="M676.691 171.176V92.0083H447.577V171.123L558.407 234.457C560.797 235.822 563.73 235.821 566.118 234.454L676.691 171.176Z" fill="url(#paint1_diamond_1894_97138)" fill-opacity="0.2"/>
<path d="M564.372 26.4617L672.454 88.55C676.071 90.6283 676.074 95.8756 672.458 97.9575L564.642 160.033C562.987 160.986 560.954 160.987 559.298 160.036L451.216 97.9478C447.599 95.8695 447.596 90.6222 451.212 88.5404L559.028 26.4643C560.683 25.5113 562.716 25.5103 564.372 26.4617Z" fill="#0E1928" stroke="#0056BB" stroke-width="1.66667"/>
<path d="M640.77 95.2936V46.3799H483.497V95.2871C483.497 98.8648 485.409 102.17 488.51 103.954L557.229 143.501C560.32 145.279 564.124 145.278 567.214 143.496L635.767 103.956C638.863 102.17 640.77 98.8678 640.77 95.2936Z" fill="#EB883C"/>
<path d="M640.77 95.2936V46.3799H483.497V95.2871C483.497 98.8648 485.409 102.17 488.51 103.954L557.229 143.501C560.32 145.279 564.124 145.278 567.214 143.496L635.767 103.956C638.863 102.17 640.77 98.8678 640.77 95.2936Z" fill="url(#paint2_diamond_1894_97138)" fill-opacity="0.2"/>
<path d="M563.443 2.03684L637.601 44.4386C639.906 45.7568 639.908 49.083 637.604 50.4034L563.628 92.7968C562.572 93.4018 561.275 93.4025 560.219 92.7985L486.061 50.3967C483.755 49.0786 483.754 45.7523 486.058 44.4319L560.034 2.0385C561.089 1.43351 562.386 1.43287 563.443 2.03684Z" fill="#EB883C" stroke="#EB883C" stroke-width="1.66667"/>
<path d="M521.972 98.2505C521.972 100.705 523.962 102.695 526.417 102.695C528.872 102.695 530.861 100.705 530.861 98.2505C530.861 95.7959 528.872 93.806 526.417 93.806C523.962 93.806 521.972 95.7959 521.972 98.2505ZM273.852 240.579L273.44 241.303L273.852 240.579ZM253.998 240.608L254.412 241.331L253.998 240.608ZM426.049 155.82L425.635 155.097L426.049 155.82ZM526.002 97.5276L425.635 155.097L426.464 156.543L526.832 98.9734L526.002 97.5276ZM415.167 173.169V287.167H416.834V173.169H415.167ZM386.51 303.82L274.265 239.855L273.44 241.303L385.685 305.268L386.51 303.82ZM253.583 239.885L0.585318 385.028L1.41468 386.474L254.412 241.331L253.583 239.885ZM274.265 239.855C267.852 236.201 259.985 236.212 253.583 239.885L254.412 241.331C260.302 237.952 267.54 237.941 273.44 241.303L274.265 239.855ZM415.167 287.167C415.167 301.874 399.288 311.101 386.51 303.82L385.685 305.268C399.574 313.182 416.834 303.153 416.834 287.167H415.167ZM425.635 155.097C419.16 158.811 415.167 165.705 415.167 173.169H416.834C416.834 166.302 420.507 159.959 426.464 156.543L425.635 155.097Z" fill="url(#paint3_linear_1894_97138)"/>
<path d="M644.889 242.418C644.889 244.873 646.879 246.863 649.333 246.863C651.788 246.863 653.778 244.873 653.778 242.418C653.778 239.964 651.788 237.974 649.333 237.974C646.879 237.974 644.889 239.964 644.889 242.418ZM829.411 97.4932L828.997 96.7697L829.411 97.4932ZM686.878 263.167L686.475 263.896L686.878 263.167ZM706.651 262.925L707.072 263.644L706.651 262.925ZM648.93 243.148L686.475 263.896L687.281 262.437L649.736 241.689L648.93 243.148ZM707.072 263.644L809.853 203.513L809.012 202.075L706.23 262.205L707.072 263.644ZM820.167 185.531V114.858H818.5V185.531H820.167ZM829.824 98.2168L866.413 77.3085L865.587 75.8614L828.997 96.7697L829.824 98.2168ZM820.167 114.858C820.167 107.98 823.852 101.629 829.824 98.2168L828.997 96.7697C822.506 100.479 818.5 107.382 818.5 114.858H820.167ZM809.853 203.513C816.241 199.776 820.167 192.931 820.167 185.531H818.5C818.5 192.339 814.888 198.637 809.012 202.075L809.853 203.513ZM686.475 263.896C692.905 267.449 700.731 267.354 707.072 263.644L706.23 262.205C700.396 265.618 693.196 265.706 687.281 262.437L686.475 263.896Z" fill="url(#paint4_linear_1894_97138)"/>
<path d="M741 266.997L759.386 277.526C772.813 285.215 772.797 304.585 759.358 312.253L734.839 326.241C728.601 329.8 724.75 336.431 724.75 343.613V456.061" stroke="url(#paint5_linear_1894_97138)" stroke-width="1.66667"/>
<rect x="735.167" y="259.917" width="10" height="28.3333" fill="#00326C"/>
<defs>
<radialGradient id="paint0_diamond_1894_97138" cx="0" cy="0" r="1" gradientUnits="userSpaceOnUse" gradientTransform="translate(561.835 104.916) rotate(90) scale(232.5 370.39)">
<stop offset="0.869484" stop-opacity="0"/>
<stop offset="1"/>
</radialGradient>
<radialGradient id="paint1_diamond_1894_97138" cx="0" cy="0" r="1" gradientUnits="userSpaceOnUse" gradientTransform="translate(562.134 61.9507) rotate(90) scale(174.71 276.721)">
<stop offset="0.869484" stop-opacity="0"/>
<stop offset="1"/>
</radialGradient>
<radialGradient id="paint2_diamond_1894_97138" cx="0" cy="0" r="1" gradientUnits="userSpaceOnUse" gradientTransform="translate(562.134 34.6158) rotate(90) scale(98.3139 154.63)">
<stop offset="0.591408" stop-opacity="0"/>
<stop offset="1"/>
</radialGradient>
<linearGradient id="paint3_linear_1894_97138" x1="480.585" y1="114.336" x2="23.8142" y2="377.428" gradientUnits="userSpaceOnUse">
<stop offset="0.28704" stop-color="#86B9F4"/>
<stop offset="0.912265" stop-color="#86B9F4" stop-opacity="0"/>
</linearGradient>
<linearGradient id="paint4_linear_1894_97138" x1="685.913" y1="256.077" x2="850.952" y2="95.4065" gradientUnits="userSpaceOnUse">
<stop stop-color="#86B9F4"/>
<stop offset="1" stop-color="#86B9F4" stop-opacity="0"/>
</linearGradient>
<linearGradient id="paint5_linear_1894_97138" x1="757.25" y1="266.997" x2="757.25" y2="456.061" gradientUnits="userSpaceOnUse">
<stop stop-color="#86B9F4"/>
<stop offset="0.88806" stop-color="#86B9F4" stop-opacity="0"/>
</linearGradient>
</defs>
</svg>
