<svg width="640" height="401" viewBox="0 0 640 401" fill="none" xmlns="http://www.w3.org/2000/svg">
<rect width="640" height="400" transform="translate(0 1)"/>
<path d="M310.178 122.171V52.3218H189.4V122.169C189.4 123.402 190.035 124.54 191.062 125.149L248.234 159.051C249.241 159.648 250.474 159.648 251.479 159.05L308.519 125.15C309.544 124.54 310.178 123.403 310.178 122.171Z" fill="url(#paint0_linear_1894_97030)"/>
<path d="M310.178 122.171V52.3218H189.4V122.169C189.4 123.402 190.035 124.54 191.062 125.149L248.234 159.051C249.241 159.648 250.474 159.648 251.479 159.05L308.519 125.15C309.544 124.54 310.178 123.403 310.178 122.171Z" fill="url(#paint1_linear_1894_97030)" fill-opacity="0.2" style="mix-blend-mode:darken"/>
<path d="M308.52 48.1973L251.35 14.0101C250.338 13.4049 249.096 13.4055 248.084 14.0118L191.055 48.1922C188.848 49.5151 188.849 52.8471 191.058 54.1677L248.228 88.3549C249.24 88.9602 250.482 88.9595 251.494 88.3533L308.523 54.1728C310.73 52.8499 310.729 49.518 308.52 48.1973Z" fill="url(#paint2_linear_1894_97030)"/>
<path d="M578.846 1L490.576 51.6082L402.306 102.216" stroke="url(#paint3_linear_1894_97030)" stroke-width="1.222"/>
<path d="M213.091 108.494C213.091 110.293 214.55 111.752 216.349 111.752C218.149 111.752 219.608 110.293 219.608 108.494C219.608 106.694 218.149 105.235 216.349 105.235C214.55 105.235 213.091 106.694 213.091 108.494ZM81.2741 246.587C81.2741 248.387 82.733 249.846 84.5327 249.846C86.3324 249.846 87.7914 248.387 87.7914 246.587C87.7914 244.788 86.3324 243.329 84.5327 243.329C82.733 243.329 81.2741 244.788 81.2741 246.587ZM44.3608 206.05L44.0593 205.519L44.3608 206.05ZM216.048 107.962L44.0593 205.519L44.6622 206.582L216.651 109.025L216.048 107.962ZM43.9344 223.516L84.2239 247.115L84.8415 246.06L44.552 222.462L43.9344 223.516ZM44.0593 205.519C37.0988 209.467 37.0294 219.472 43.9344 223.516L44.552 222.462C38.4593 218.893 38.5206 210.065 44.6622 206.582L44.0593 205.519Z" fill="url(#paint4_linear_1894_97030)"/>
<path d="M440.159 196.823V103.691H279.123V196.82C279.123 198.465 279.969 199.983 281.338 200.795L357.568 245.997C358.91 246.793 360.553 246.792 361.894 245.995L437.947 200.796C439.314 199.983 440.159 198.466 440.159 196.823Z" fill="url(#paint5_linear_1894_97030)"/>
<path d="M440.159 196.823V103.691H279.123V196.82C279.123 198.465 279.969 199.983 281.338 200.795L357.568 245.997C358.91 246.793 360.553 246.792 361.894 245.995L437.947 200.796C439.314 199.983 440.159 198.466 440.159 196.823Z" fill="url(#paint6_linear_1894_97030)" fill-opacity="0.2" style="mix-blend-mode:darken"/>
<path d="M437.949 98.1895L361.722 52.6066C360.373 51.7996 358.716 51.8005 357.367 52.6088L281.328 98.1827C278.385 99.9465 278.388 104.389 281.332 106.15L357.559 151.733C358.908 152.54 360.565 152.539 361.914 151.731L437.952 106.157C440.895 104.393 440.893 99.9503 437.949 98.1895Z" fill="url(#paint7_linear_1894_97030)"/>
<path d="M529.874 247.708V177.859H409.096V247.706C409.096 248.939 409.731 250.077 410.758 250.687L467.931 284.589C468.937 285.185 470.17 285.185 471.175 284.587L528.215 250.687C529.24 250.078 529.874 248.94 529.874 247.708Z" fill="url(#paint8_linear_1894_97030)"/>
<path d="M529.874 247.708V177.859H409.096V247.706C409.096 248.939 409.731 250.077 410.758 250.687L467.931 284.589C468.937 285.185 470.17 285.185 471.175 284.587L528.215 250.687C529.24 250.078 529.874 248.94 529.874 247.708Z" fill="url(#paint9_linear_1894_97030)" fill-opacity="0.2" style="mix-blend-mode:darken"/>
<path d="M528.216 173.734L471.046 139.547C470.034 138.942 468.792 138.943 467.78 139.549L410.751 173.729C408.544 175.052 408.545 178.384 410.754 179.705L467.924 213.892C468.936 214.497 470.178 214.497 471.19 213.89L528.219 179.71C530.426 178.387 530.425 175.055 528.216 173.734Z" fill="url(#paint10_linear_1894_97030)"/>
<path d="M308.337 271.662V177.644H147.301V271.659C147.301 273.32 148.147 274.852 149.517 275.672L225.746 321.305C227.088 322.108 228.732 322.107 230.073 321.302L306.125 275.672C307.493 274.852 308.337 273.321 308.337 271.662Z" fill="#003B7F"/>
<path d="M308.337 271.662V177.644H147.301V271.659C147.301 273.32 148.147 274.852 149.517 275.672L225.746 321.305C227.088 322.108 228.732 322.107 230.073 321.302L306.125 275.672C307.493 274.852 308.337 273.321 308.337 271.662Z" fill="url(#paint11_diamond_1894_97030)" fill-opacity="0.1" style="mix-blend-mode:darken"/>
<path d="M308.337 271.662V177.644H147.301V271.659C147.301 273.32 148.147 274.852 149.517 275.672L225.746 321.305C227.088 322.108 228.732 322.107 230.073 321.302L306.125 275.672C307.493 274.852 308.337 273.321 308.337 271.662Z" fill="url(#paint12_linear_1894_97030)" fill-opacity="0.12" style="mix-blend-mode:darken"/>
<path d="M306.127 174.168L229.901 127.936C228.551 127.117 226.895 127.118 225.546 127.938L149.507 174.162C146.564 175.951 146.566 180.457 149.511 182.242L225.737 228.475C227.087 229.294 228.743 229.293 230.092 228.473L306.131 182.249C309.074 180.46 309.072 175.954 306.127 174.168Z" fill="#003B7F"/>
<path d="M306.127 174.255L229.901 127.937C228.551 127.117 226.895 127.118 225.546 127.939L149.507 174.249C146.564 176.041 146.566 180.555 149.511 182.344L225.737 228.663C227.087 229.483 228.743 229.482 230.092 228.661L306.131 182.351C309.074 180.559 309.072 176.045 306.127 174.255Z" fill="url(#paint13_linear_1894_97030)"/>
<path d="M398.057 322.676V252.163H277.28V322.674C277.28 323.919 277.914 325.068 278.942 325.683L336.114 359.908C337.12 360.51 338.353 360.51 339.359 359.906L396.398 325.684C397.424 325.068 398.057 323.92 398.057 322.676Z" fill="#003B7F"/>
<path d="M398.057 322.676V252.163H277.28V322.674C277.28 323.919 277.914 325.068 278.942 325.683L336.114 359.908C337.12 360.51 338.353 360.51 339.359 359.906L396.398 325.684C397.424 325.068 398.057 323.92 398.057 322.676Z" fill="url(#paint14_diamond_1894_97030)" fill-opacity="0.1" style="mix-blend-mode:darken"/>
<path d="M398.057 322.676V252.163H277.28V322.674C277.28 323.919 277.914 325.068 278.942 325.683L336.114 359.908C337.12 360.51 338.353 360.51 339.359 359.906L396.398 325.684C397.424 325.068 398.057 323.92 398.057 322.676Z" fill="url(#paint15_linear_1894_97030)" fill-opacity="0.12" style="mix-blend-mode:darken"/>
<path d="M396.4 249.551L339.23 214.876C338.218 214.263 336.975 214.263 335.964 214.878L278.934 249.546C276.727 250.888 276.729 254.267 278.937 255.607L336.107 290.281C337.119 290.895 338.362 290.894 339.373 290.28L396.403 255.612C398.61 254.27 398.608 250.891 396.4 249.551Z" fill="#003B7F"/>
<path d="M396.4 249.616L339.23 214.877C338.218 214.262 336.975 214.263 335.964 214.879L278.934 249.611C276.727 250.955 276.729 254.341 278.937 255.683L336.107 290.422C337.119 291.037 338.362 291.036 339.373 290.42L396.402 255.688C398.61 254.344 398.608 250.958 396.4 249.616Z" fill="url(#paint16_linear_1894_97030)"/>
<path d="M176.037 347.468V254.339H15V347.465C15 349.11 15.8461 350.627 17.2156 351.439L93.4457 396.641C94.7875 397.436 96.4312 397.435 97.7722 396.638L173.825 351.44C175.192 350.628 176.037 349.111 176.037 347.468Z" fill="url(#paint17_linear_1894_97030)"/>
<path d="M176.037 347.468V254.339H15V347.465C15 349.11 15.8461 350.627 17.2156 351.439L93.4457 396.641C94.7875 397.436 96.4312 397.435 97.7722 396.638L173.825 351.44C175.192 350.628 176.037 349.111 176.037 347.468Z" fill="url(#paint18_linear_1894_97030)" fill-opacity="0.2" style="mix-blend-mode:darken"/>
<path d="M173.827 248.836L97.6002 203.255C96.2508 202.448 94.594 202.448 93.2453 203.257L17.206 248.829C14.263 250.593 14.2651 255.035 17.2097 256.796L93.4365 302.377C94.786 303.184 96.4428 303.184 97.7915 302.375L173.831 256.803C176.774 255.039 176.772 250.597 173.827 248.836Z" fill="url(#paint19_linear_1894_97030)"/>
<path d="M367.662 309.358C367.662 311.157 369.121 312.616 370.921 312.616C372.72 312.616 374.179 311.157 374.179 309.358C374.179 307.558 372.72 306.099 370.921 306.099C369.121 306.099 367.662 307.558 367.662 309.358ZM498.694 234.818C498.694 236.618 500.153 238.077 501.953 238.077C503.752 238.077 505.211 236.618 505.211 234.818C505.211 233.019 503.752 231.56 501.953 231.56C500.153 231.56 498.694 233.019 498.694 234.818ZM486.095 375.602L486.4 375.072L486.095 375.602ZM495.841 375.603L496.146 376.133L495.841 375.603ZM607.176 311.602L607.48 312.132L607.176 311.602ZM370.616 309.887L485.791 376.131L486.4 375.072L371.225 308.828L370.616 309.887ZM496.146 376.133L607.48 312.132L606.871 311.072L495.537 375.073L496.146 376.133ZM607.438 294.097L502.255 234.287L501.651 235.349L606.834 295.16L607.438 294.097ZM485.791 376.131C488.996 377.975 492.94 377.975 496.146 376.133L495.537 375.073C492.708 376.699 489.228 376.699 486.4 375.072L485.791 376.131ZM607.48 312.132C614.446 308.127 614.423 298.069 607.438 294.097L606.834 295.16C612.997 298.664 613.018 307.539 606.871 311.072L607.48 312.132Z" fill="url(#paint20_linear_1894_97030)"/>
<defs>
<linearGradient id="paint0_linear_1894_97030" x1="249.789" y1="52.3218" x2="249.789" y2="159.499" gradientUnits="userSpaceOnUse">
<stop stop-color="#3481DC"/>
<stop offset="1" stop-color="#174882"/>
</linearGradient>
<linearGradient id="paint1_linear_1894_97030" x1="191.042" y1="98.4551" x2="308.673" y2="98.7171" gradientUnits="userSpaceOnUse">
<stop offset="0.260417" stop-opacity="0"/>
<stop offset="0.499846"/>
<stop offset="0.729167" stop-opacity="0"/>
</linearGradient>
<linearGradient id="paint2_linear_1894_97030" x1="250.928" y1="-75.3773" x2="249.788" y2="88.8084" gradientUnits="userSpaceOnUse">
<stop stop-color="white"/>
<stop offset="1" stop-color="#3481DC"/>
</linearGradient>
<linearGradient id="paint3_linear_1894_97030" x1="451.881" y1="102.755" x2="579.074" y2="29.2038" gradientUnits="userSpaceOnUse">
<stop stop-color="#196ED2"/>
<stop offset="1" stop-color="#196ED2" stop-opacity="0"/>
</linearGradient>
<linearGradient id="paint4_linear_1894_97030" x1="64.2179" y1="218.887" x2="313.628" y2="41.3693" gradientUnits="userSpaceOnUse">
<stop stop-color="#196ED2"/>
<stop offset="1" stop-color="white"/>
</linearGradient>
<linearGradient id="paint5_linear_1894_97030" x1="359.641" y1="103.691" x2="359.641" y2="246.594" gradientUnits="userSpaceOnUse">
<stop stop-color="#3481DC"/>
<stop offset="1" stop-color="#174882"/>
</linearGradient>
<linearGradient id="paint6_linear_1894_97030" x1="281.311" y1="165.202" x2="438.153" y2="165.552" gradientUnits="userSpaceOnUse">
<stop offset="0.260417" stop-opacity="0"/>
<stop offset="0.499846"/>
<stop offset="0.729167" stop-opacity="0"/>
</linearGradient>
<linearGradient id="paint7_linear_1894_97030" x1="361.16" y1="-66.5765" x2="359.638" y2="152.338" gradientUnits="userSpaceOnUse">
<stop stop-color="white"/>
<stop offset="1" stop-color="#3481DC"/>
</linearGradient>
<linearGradient id="paint8_linear_1894_97030" x1="469.485" y1="177.859" x2="469.485" y2="285.036" gradientUnits="userSpaceOnUse">
<stop stop-color="#3481DC"/>
<stop offset="1" stop-color="#174882"/>
</linearGradient>
<linearGradient id="paint9_linear_1894_97030" x1="410.738" y1="223.992" x2="528.369" y2="224.254" gradientUnits="userSpaceOnUse">
<stop offset="0.260417" stop-opacity="0"/>
<stop offset="0.499846"/>
<stop offset="0.729167" stop-opacity="0"/>
</linearGradient>
<linearGradient id="paint10_linear_1894_97030" x1="470.624" y1="50.1599" x2="469.483" y2="214.345" gradientUnits="userSpaceOnUse">
<stop stop-color="white"/>
<stop offset="1" stop-color="#3481DC"/>
</linearGradient>
<radialGradient id="paint11_diamond_1894_97030" cx="0" cy="0" r="1" gradientUnits="userSpaceOnUse" gradientTransform="translate(227.91 195.246) rotate(90.0412) scale(126.66 226.761)">
<stop offset="0.57542" stop-opacity="0"/>
<stop offset="1"/>
</radialGradient>
<linearGradient id="paint12_linear_1894_97030" x1="149.49" y1="239.741" x2="306.331" y2="240.087" gradientUnits="userSpaceOnUse">
<stop offset="0.260417" stop-opacity="0"/>
<stop offset="0.499846"/>
<stop offset="0.729167" stop-opacity="0"/>
</linearGradient>
<linearGradient id="paint13_linear_1894_97030" x1="227.819" y1="127.322" x2="227.819" y2="229.278" gradientUnits="userSpaceOnUse">
<stop stop-color="#2F76CA"/>
<stop offset="1" stop-color="#003B7F"/>
</linearGradient>
<radialGradient id="paint14_diamond_1894_97030" cx="0" cy="0" r="1" gradientUnits="userSpaceOnUse" gradientTransform="translate(337.737 265.364) rotate(90.0412) scale(94.9949 170.071)">
<stop offset="0.57542" stop-opacity="0"/>
<stop offset="1"/>
</radialGradient>
<linearGradient id="paint15_linear_1894_97030" x1="278.921" y1="298.735" x2="396.553" y2="298.994" gradientUnits="userSpaceOnUse">
<stop offset="0.260417" stop-opacity="0"/>
<stop offset="0.499846"/>
<stop offset="0.729167" stop-opacity="0"/>
</linearGradient>
<linearGradient id="paint16_linear_1894_97030" x1="337.668" y1="214.417" x2="337.668" y2="290.883" gradientUnits="userSpaceOnUse">
<stop stop-color="#2F76CA"/>
<stop offset="1" stop-color="#003B7F"/>
</linearGradient>
<linearGradient id="paint17_linear_1894_97030" x1="95.5184" y1="254.339" x2="95.5184" y2="397.237" gradientUnits="userSpaceOnUse">
<stop stop-color="#C86519"/>
<stop offset="1" stop-color="#BC6D31"/>
</linearGradient>
<linearGradient id="paint18_linear_1894_97030" x1="17.1885" y1="315.848" x2="174.031" y2="316.198" gradientUnits="userSpaceOnUse">
<stop offset="0.260417" stop-opacity="0"/>
<stop offset="0.499846"/>
<stop offset="0.729167" stop-opacity="0"/>
</linearGradient>
<linearGradient id="paint19_linear_1894_97030" x1="97.0376" y1="84.0755" x2="95.5164" y2="302.982" gradientUnits="userSpaceOnUse">
<stop stop-color="#FBE6D7"/>
<stop offset="1" stop-color="#EB883C"/>
</linearGradient>
<linearGradient id="paint20_linear_1894_97030" x1="543.682" y1="357.696" x2="415.935" y2="211.147" gradientUnits="userSpaceOnUse">
<stop stop-color="#196ED2"/>
<stop offset="1" stop-color="white"/>
</linearGradient>
</defs>
</svg>
