<svg width="14" height="24" viewBox="0 0 14 24" fill="none" xmlns="http://www.w3.org/2000/svg">
<path d="M11.9571 13.9902C12.2527 13.9902 12.5043 13.7749 12.5499 13.4828L13.1544 9.6139C13.1815 9.44069 13.1314 9.26431 13.0174 9.13113C12.9034 8.99794 12.7369 8.92127 12.5616 8.92127H9.47403V6.98229C9.47403 6.52812 9.58844 6.15781 9.80379 5.90895C10.0054 5.676 10.3671 5.46647 11.0503 5.46647H12.743C13.0743 5.46647 13.343 5.19784 13.343 4.86647V1.54161C13.343 1.24683 13.1288 0.995719 12.8378 0.949147L12.743 1.54161C12.8378 0.949147 12.8377 0.949139 12.8376 0.94913L12.8375 0.949107L12.8371 0.949045L12.8359 0.948855L12.8319 0.94822L12.8174 0.945961L12.7637 0.937801C12.7172 0.930862 12.6499 0.921075 12.5647 0.909393C12.3945 0.886041 12.1523 0.855052 11.862 0.824092C11.2836 0.762395 10.505 0.699805 9.72036 0.699805C8.05707 0.699805 6.62152 1.2076 5.60097 2.22815C4.57984 3.24928 4.04239 4.71547 4.04239 6.49867V8.86082H1.25708C0.925709 8.86082 0.65708 9.12945 0.65708 9.46082V13.3297C0.65708 13.6611 0.925709 13.9297 1.25708 13.9297H4.04239V22.6998C4.04239 23.0312 4.31102 23.2998 4.64239 23.2998H8.81358C9.14495 23.2998 9.41358 23.0312 9.41358 22.6998V13.9902H11.9571Z" fill="white" stroke="white" stroke-width="1.2" stroke-linejoin="round"/>
</svg>
