<?xml version="1.0" encoding="UTF-8"?><svg id="_レイヤー_2" xmlns="http://www.w3.org/2000/svg" xmlns:xlink="http://www.w3.org/1999/xlink" viewBox="0 0 227.4 19.46"><defs><style>.cls-1{fill:url(#_名称未設定グラデーション_2-9);}.cls-2{fill:url(#_名称未設定グラデーション_2-8);}.cls-3{fill:url(#_名称未設定グラデーション_2-3);}.cls-4{fill:url(#_名称未設定グラデーション_2-6);}.cls-5{fill:url(#_名称未設定グラデーション_2-7);}.cls-6{fill:url(#_名称未設定グラデーション_2-2);}.cls-7{fill:url(#_名称未設定グラデーション_2-4);}.cls-8{fill:url(#_名称未設定グラデーション_2-5);}.cls-9{fill:url(#_名称未設定グラデーション_2-10);}.cls-10{fill:url(#_名称未設定グラデーション_2-11);}.cls-11{fill:url(#_名称未設定グラデーション_2-13);}.cls-12{fill:url(#_名称未設定グラデーション_2-12);}.cls-13{fill:url(#_名称未設定グラデーション_2-14);}.cls-14{fill:url(#_名称未設定グラデーション_2);}</style><linearGradient id="_名称未設定グラデーション_2" x1="205.84" y1="19.19" x2="205.84" y2="4.72" gradientUnits="userSpaceOnUse"><stop offset=".2" stop-color="#0a4c6c"/><stop offset=".23" stop-color="#094867"/><stop offset=".41" stop-color="#04364e"/><stop offset=".57" stop-color="#012b3e"/><stop offset=".71" stop-color="#002739"/></linearGradient><linearGradient id="_名称未設定グラデーション_2-2" x1="9.52" x2="9.52" y2=".26" xlink:href="#_名称未設定グラデーション_2"/><linearGradient id="_名称未設定グラデーション_2-3" x1="23.67" x2="23.67" y2="0" xlink:href="#_名称未設定グラデーション_2"/><linearGradient id="_名称未設定グラデーション_2-4" x1="34.96" x2="34.96" y2=".26" xlink:href="#_名称未設定グラデーション_2"/><linearGradient id="_名称未設定グラデーション_2-5" x1="51.87" y1="19.45" x2="51.87" y2="4.46" xlink:href="#_名称未設定グラデーション_2"/><linearGradient id="_名称未設定グラデーション_2-6" x1="67.57" x2="67.57" y2=".26" xlink:href="#_名称未設定グラデーション_2"/><linearGradient id="_名称未設定グラデーション_2-7" x1="84.56" y1="19.45" x2="84.56" y2="4.46" xlink:href="#_名称未設定グラデーション_2"/><linearGradient id="_名称未設定グラデーション_2-8" x1="111.63" x2="111.63" y2=".26" xlink:href="#_名称未設定グラデーション_2"/><linearGradient id="_名称未設定グラデーション_2-9" x1="129.89" y1="19.46" x2="129.89" y2="4.46" xlink:href="#_名称未設定グラデーション_2"/><linearGradient id="_名称未設定グラデーション_2-10" x1="145.49" x2="145.49" xlink:href="#_名称未設定グラデーション_2"/><linearGradient id="_名称未設定グラデーション_2-11" x1="158.26" y1="19.44" x2="158.26" y2=".26" xlink:href="#_名称未設定グラデーション_2"/><linearGradient id="_名称未設定グラデーション_2-12" x1="173.03" x2="173.03" y2="4.46" xlink:href="#_名称未設定グラデーション_2"/><linearGradient id="_名称未設定グラデーション_2-13" x1="190.35" y1="19.45" x2="190.35" y2="4.46" xlink:href="#_名称未設定グラデーション_2"/><linearGradient id="_名称未設定グラデーション_2-14" x1="220.13" y1="19.45" x2="220.13" y2="4.46" xlink:href="#_名称未設定グラデーション_2"/></defs><g id="b3c8e4cf-5fc8-408a-a611-f7eb242872df"><g><path class="cls-14" d="M210.22,8.34l-2.03-.08c-1.19,0-2.32,.39-3.4,1.7v8.43c0,.24-.08,.43-.23,.58-.15,.15-.35,.22-.57,.22h-2.96c-.24,0-.43-.07-.58-.22-.15-.15-.22-.34-.22-.58V5.54c0-.24,.08-.43,.23-.59,.15-.15,.35-.23,.58-.23h2.96c.24,0,.43,.08,.58,.23,.15,.15,.22,.35,.22,.59v.83c.9-.65,1.76-.88,2.59-1.19,.83-.31,1.92-.47,3.27-.47,.24,0,.43,.08,.59,.23,.15,.15,.23,.35,.23,.57v2.01c0,.24-.08,.43-.23,.58-.16,.15-.35,.22-.59,.22h-.42Z"/><path class="cls-6" d="M0,17.95V1.52c0-.34,.12-.64,.37-.88,.25-.25,.55-.37,.91-.37H3.73c.34,0,.64,.12,.88,.37,.24,.25,.36,.54,.36,.88V7.46H14.05V1.52c0-.34,.12-.64,.37-.88,.25-.25,.54-.37,.88-.37h2.46c.36,0,.66,.12,.9,.37,.24,.25,.36,.54,.36,.88V17.95c0,.34-.13,.64-.38,.88-.25,.24-.55,.36-.89,.36h-2.46c-.34,0-.64-.12-.88-.35-.25-.23-.37-.52-.37-.86v-6.78H4.98v6.78c0,.34-.12,.63-.36,.86-.24,.23-.53,.35-.88,.35H1.28c-.34,0-.64-.12-.9-.36-.26-.24-.38-.53-.38-.88Z"/><path class="cls-3" d="M21.34,1.97v-.45c0-.47,.13-.84,.4-1.11,.27-.27,.64-.41,1.11-.41h1.64c.47,0,.84,.13,1.11,.4,.27,.27,.41,.64,.41,1.11v.45c0,.47-.13,.84-.4,1.11-.27,.27-.64,.41-1.11,.41h-1.64c-.47,0-.84-.14-1.11-.41-.27-.27-.41-.64-.41-1.11Zm.05,16.42V5.86c0-.24,.08-.43,.23-.58,.15-.15,.35-.22,.57-.22h2.96c.24,0,.43,.08,.58,.23,.15,.15,.22,.35,.22,.57v12.52c0,.24-.08,.43-.23,.58-.15,.15-.35,.22-.57,.22h-2.96c-.24,0-.43-.07-.58-.22-.15-.15-.22-.34-.22-.58Z"/><path class="cls-7" d="M29.99,15.22l2.22,.24h.95c1.22,0,2.11-.25,2.66-.75,.55-.5,.82-1.35,.82-2.53V1.52c0-.34,.12-.64,.36-.88,.24-.25,.53-.37,.88-.37h2.45c.36,0,.66,.12,.91,.37,.25,.25,.37,.54,.37,.88V12.13c0,2.25-.75,3.99-2.24,5.22-1.5,1.23-3.52,1.84-6.08,1.84h-3.73c-.34,0-.64-.12-.88-.36-.24-.24-.36-.53-.36-.88v-1.49c0-.34,.12-.64,.35-.88,.23-.24,.53-.36,.89-.36h.44Z"/><path class="cls-8" d="M45.95,17.55c-1.37-1.27-2.06-3.13-2.06-5.6s.69-4.33,2.06-5.6c1.37-1.26,3.35-1.89,5.92-1.89s4.55,.63,5.92,1.89c1.37,1.26,2.06,3.13,2.06,5.6s-.69,4.34-2.06,5.6c-1.37,1.27-3.35,1.9-5.92,1.9s-4.55-.63-5.92-1.9Zm3.34-9.03c-.55,.71-.82,1.85-.82,3.42s.27,2.71,.82,3.43c.55,.72,1.41,1.08,2.58,1.08s2.04-.36,2.59-1.08c.55-.72,.82-1.87,.82-3.43s-.28-2.71-.82-3.42c-.55-.71-1.41-1.07-2.59-1.07s-2.03,.36-2.58,1.07Z"/><path class="cls-4" d="M62.6,15.22l2.22,.24h.95c1.22,0,2.11-.25,2.66-.75,.55-.5,.82-1.35,.82-2.53V1.52c0-.34,.12-.64,.36-.88,.24-.25,.53-.37,.88-.37h2.45c.36,0,.66,.12,.91,.37,.25,.25,.37,.54,.37,.88V12.13c0,2.25-.75,3.99-2.24,5.22-1.5,1.23-3.52,1.84-6.08,1.84h-3.74c-.34,0-.64-.12-.88-.36-.24-.24-.36-.53-.36-.88v-1.49c0-.34,.12-.64,.35-.88,.23-.24,.53-.36,.89-.36h.44Z"/><path class="cls-5" d="M78.65,17.55c-1.37-1.27-2.06-3.13-2.06-5.6s.69-4.33,2.06-5.6c1.37-1.26,3.35-1.89,5.92-1.89s4.55,.63,5.92,1.89c1.37,1.26,2.06,3.13,2.06,5.6s-.69,4.34-2.06,5.6c-1.37,1.27-3.35,1.9-5.92,1.9s-4.55-.63-5.92-1.9Zm3.34-9.03c-.55,.71-.82,1.85-.82,3.42s.27,2.71,.82,3.43c.55,.72,1.41,1.08,2.58,1.08s2.04-.36,2.59-1.08c.55-.72,.83-1.87,.83-3.43s-.28-2.71-.83-3.42c-.55-.71-1.41-1.07-2.59-1.07s-2.03,.36-2.58,1.07Z"/><path class="cls-2" d="M101.99,17.95V1.52c0-.34,.12-.64,.36-.88,.24-.25,.53-.37,.87-.37h10.07c5.32,0,7.98,2.45,7.98,7.36s-2.66,7.36-7.98,7.36h-6.32v2.97c0,.34-.12,.64-.36,.88-.24,.24-.53,.36-.88,.36h-2.48c-.34,0-.64-.12-.88-.36-.25-.24-.37-.53-.37-.88Zm4.98-6.7h4.82c1.48,0,2.6-.25,3.37-.75,.77-.5,1.15-1.46,1.15-2.88s-.38-2.38-1.15-2.88c-.76-.5-1.89-.75-3.37-.75h-4.82v7.25Z"/><path class="cls-1" d="M124.05,18.24c-1.17-.81-1.75-1.95-1.75-3.43s.58-2.61,1.75-3.41c1.17-.79,2.67-1.19,4.51-1.19h4.37c0-1.03-.22-1.75-.65-2.15-.43-.4-1.19-.61-2.26-.61s-1.83,.27-2.27,.8c-.44,.53-.97,.8-1.6,.8h-1.97c-.24,0-.43-.08-.59-.23-.15-.15-.23-.35-.23-.57,0-2.52,2.4-3.79,7.19-3.79,2.09,0,3.77,.47,5.04,1.41,1.27,.94,1.9,2.39,1.9,4.35v8.17c0,.24-.07,.43-.22,.58-.15,.15-.34,.22-.58,.22h-2.55c-.24,0-.43-.08-.58-.23-.15-.15-.22-.35-.22-.57v-.41c-1.39,.99-2.99,1.49-4.81,1.48-1.82,0-3.31-.41-4.47-1.22Zm3.37-4.58c-.36,.3-.53,.69-.53,1.16s.19,.87,.56,1.17c.37,.31,.89,.46,1.57,.46,1.36,0,2.66-.4,3.92-1.19v-2.06h-4.05c-.62,0-1.1,.15-1.46,.45Z"/><path class="cls-9" d="M149.87,8.34l-2.03-.08c-1.19,0-2.32,.39-3.4,1.7v8.43c0,.24-.08,.43-.23,.58-.15,.15-.35,.22-.57,.22h-2.96c-.24,0-.43-.07-.58-.22-.15-.15-.22-.34-.22-.58V5.54c0-.24,.08-.43,.23-.59,.15-.15,.35-.23,.57-.23h2.96c.24,0,.43,.08,.58,.23,.15,.15,.22,.35,.22,.59v.83c.9-.65,1.76-.88,2.59-1.19,.83-.31,1.92-.47,3.27-.47,.24,0,.43,.08,.59,.23,.15,.15,.23,.35,.23,.57v2.01c0,.24-.08,.43-.23,.58-.15,.15-.35,.22-.59,.22h-.42Z"/><path class="cls-10" d="M160.15,16.32l1.81-.16h.49c.24,0,.43,.08,.59,.22,.15,.15,.23,.34,.23,.58v1.41c0,.19-.08,.37-.23,.52-.15,.15-.35,.25-.59,.28-.9,.18-2.07,.26-3.51,.26-3.78,0-5.67-1.98-5.67-5.94V1.07c0-.24,.08-.43,.23-.59,.15-.15,.35-.23,.57-.23h2.96c.23,0,.42,.08,.57,.23,.15,.15,.23,.35,.23,.59v3.65h3.68c.23,0,.42,.08,.57,.22,.15,.15,.23,.34,.23,.58v1.57c0,.24-.08,.43-.23,.58-.15,.15-.35,.22-.57,.22h-3.68v5.61c0,.9,.21,1.59,.63,2.08,.42,.49,.99,.73,1.69,.73Z"/><path class="cls-12" d="M165.43,18.38V5.54c0-.24,.08-.43,.23-.59,.15-.15,.35-.23,.57-.23h2.96c.23,0,.42,.08,.57,.23,.15,.15,.23,.35,.23,.59v.83c1.51-1.28,3.13-1.91,4.84-1.91s3.1,.52,4.18,1.56c1.07,1.04,1.61,2.64,1.61,4.78v7.57c0,.23-.08,.42-.23,.57-.15,.15-.35,.23-.59,.23h-2.94c-.23,0-.42-.08-.57-.23-.15-.15-.23-.35-.23-.57v-7.57c0-2.1-.84-3.15-2.52-3.15-1.1,0-2.28,.63-3.54,1.89v8.84c0,.23-.08,.42-.23,.57-.15,.15-.35,.23-.57,.23h-2.96c-.23,0-.42-.08-.57-.23-.15-.15-.23-.35-.23-.57Z"/><path class="cls-11" d="M184.68,17.53c-1.36-1.28-2.03-3.13-2.03-5.55s.68-4.27,2.05-5.57c1.36-1.3,3.26-1.95,5.67-1.95s4.31,.63,5.66,1.89c1.35,1.26,2.03,3.07,2.03,5.43v.75c0,.24-.08,.43-.23,.59-.15,.15-.35,.23-.59,.23h-9.94c.09,1.08,.4,1.87,.93,2.36,.53,.49,1.38,.74,2.55,.74s1.97-.26,2.4-.79c.43-.53,.96-.8,1.6-.81h1.97c.24,0,.43,.08,.59,.23,.15,.15,.23,.35,.23,.59,0,2.53-2.41,3.78-7.22,3.77-2.43,0-4.32-.64-5.67-1.93Zm2.6-6.95h6.14c-.09-2.08-1.11-3.11-3.06-3.11s-2.98,1.04-3.08,3.11Z"/><path class="cls-13" d="M212.86,8.72c0-2.84,2.29-4.26,6.88-4.26,4.82,0,7.23,1.26,7.23,3.79,0,.23-.08,.42-.22,.57-.15,.15-.34,.23-.58,.23h-1.97c-.63,0-1.17-.27-1.6-.8-.43-.53-1.28-.8-2.55-.8-1.74,0-2.61,.42-2.61,1.27,0,.4,.34,.73,1.02,.99,.68,.26,1.51,.49,2.49,.69,.98,.2,1.96,.45,2.94,.76,.98,.31,1.81,.8,2.49,1.47,.68,.67,1.02,1.53,1.02,2.55,0,2.84-2.42,4.26-7.26,4.26s-7.26-1.26-7.26-3.77c0-.24,.08-.43,.23-.59,.15-.15,.35-.23,.59-.23h1.97c.63,0,1.17,.27,1.6,.8,.43,.53,1.28,.8,2.55,.8,2.01,0,3.02-.42,3.02-1.27,0-.4-.34-.73-1.02-.99-.68-.26-1.52-.5-2.5-.71-.99-.21-1.96-.46-2.94-.77-.97-.3-1.8-.79-2.49-1.47-.68-.68-1.03-1.52-1.03-2.53Z"/></g></g></svg>