<svg width="593" height="450" viewBox="0 0 593 450" fill="none" xmlns="http://www.w3.org/2000/svg">
<path d="M467.928 176.566C467.928 174.514 469.592 172.85 471.645 172.85C473.697 172.85 475.361 174.514 475.361 176.566C475.361 178.619 473.697 180.283 471.645 180.283C469.592 180.283 467.928 178.619 467.928 176.566ZM451.71 4.5386C451.71 2.48611 453.374 0.822266 455.426 0.822266C457.479 0.822266 459.143 2.48611 459.143 4.5386C459.143 6.59108 457.479 8.25494 455.426 8.25494C453.374 8.25494 451.71 6.59108 451.71 4.5386ZM471.239 175.999L551.146 118.905L551.956 120.039L472.05 177.133L471.239 175.999ZM549.538 64.5326L455.055 5.12851L455.797 3.9487L550.28 63.3528L549.538 64.5326ZM551.146 118.905C570.096 105.365 569.255 76.9292 549.538 64.5326L550.28 63.3528C570.836 76.2769 571.712 105.923 551.956 120.039L551.146 118.905Z" fill="url(#paint0_linear_1894_97064)"/>
<g opacity="0.1">
<g filter="url(#filter0_f_1894_97064)">
<path d="M408.45 318.387V210.92H224.379V318.383C224.379 320.281 225.346 322.032 226.911 322.969L314.045 375.13C315.579 376.048 317.458 376.047 318.991 375.127L405.922 322.97C407.485 322.032 408.45 320.282 408.45 318.387Z" fill="#68BEEE"/>
<path d="M408.45 318.387V210.92H224.379V318.383C224.379 320.281 225.346 322.032 226.911 322.969L314.045 375.13C315.579 376.048 317.458 376.047 318.991 375.127L405.922 322.97C407.485 322.032 408.45 320.282 408.45 318.387Z" fill="url(#paint1_diamond_1894_97064)" fill-opacity="0.1" style="mix-blend-mode:darken"/>
<path d="M408.45 318.387V210.92H224.379V318.383C224.379 320.281 225.346 322.032 226.911 322.969L314.045 375.13C315.579 376.048 317.458 376.047 318.991 375.127L405.922 322.97C407.485 322.032 408.45 320.282 408.45 318.387Z" fill="url(#paint2_linear_1894_97064)" fill-opacity="0.12" style="mix-blend-mode:darken"/>
</g>
<g filter="url(#filter1_f_1894_97064)">
<path d="M405.924 206.945L318.794 154.098C317.252 153.163 315.358 153.164 313.816 154.101L226.9 206.937C223.536 208.981 223.539 214.132 226.904 216.173L314.035 269.019C315.577 269.955 317.471 269.954 319.013 269.017L405.929 216.181C409.293 214.136 409.29 208.986 405.924 206.945Z" fill="#68BEEE"/>
</g>
</g>
<path d="M186.09 153.397L300.362 88.6771C310.667 82.8403 323.291 82.8889 333.552 88.8048L445.58 153.397" stroke="#68BEEE" stroke-width="1.39363"/>
<path d="M217.068 209.504V136.74H92.4363V209.502C92.4363 210.787 93.0911 211.973 94.151 212.607L153.148 247.924C154.186 248.545 155.459 248.545 156.496 247.922L215.356 212.608C216.414 211.973 217.068 210.788 217.068 209.504Z" fill="#003B7F"/>
<path d="M217.068 209.504V136.74H92.4363V209.502C92.4363 210.787 93.0911 211.973 94.151 212.607L153.148 247.924C154.186 248.545 155.459 248.545 156.496 247.922L215.356 212.608C216.414 211.973 217.068 210.788 217.068 209.504Z" fill="url(#paint3_diamond_1894_97064)" fill-opacity="0.1" style="mix-blend-mode:darken"/>
<path d="M217.068 209.504V136.74H92.4363V209.502C92.4363 210.787 93.0911 211.973 94.151 212.607L153.148 247.924C154.186 248.545 155.459 248.545 156.496 247.922L215.356 212.608C216.414 211.973 217.068 210.788 217.068 209.504Z" fill="url(#paint4_linear_1894_97064)" fill-opacity="0.12" style="mix-blend-mode:darken"/>
<path d="M215.358 134.049L156.363 98.2676C155.319 97.6341 154.037 97.6348 152.993 98.2693L94.1435 134.043C91.8659 135.428 91.8675 138.915 94.1464 140.298L153.141 176.079C154.185 176.712 155.468 176.711 156.511 176.077L215.361 140.303C217.638 138.918 217.637 135.431 215.358 134.049Z" fill="url(#paint5_linear_1894_97064)"/>
<path d="M540.763 209.344V137.593H416.692V209.342C416.692 210.609 417.344 211.778 418.399 212.404L477.131 247.229C478.165 247.842 479.431 247.842 480.464 247.228L539.059 212.405C540.112 211.779 540.763 210.61 540.763 209.344Z" fill="url(#paint6_linear_1894_97064)"/>
<path d="M540.763 209.344V137.593H416.692V209.342C416.692 210.609 417.344 211.778 418.399 212.404L477.131 247.229C478.165 247.842 479.431 247.842 480.464 247.228L539.059 212.405C540.112 211.779 540.763 210.61 540.763 209.344Z" fill="url(#paint7_linear_1894_97064)" fill-opacity="0.2" style="mix-blend-mode:darken"/>
<path d="M539.061 133.354L480.332 98.2353C479.292 97.6136 478.016 97.6143 476.976 98.2371L418.392 133.348C416.125 134.707 416.126 138.13 418.395 139.486L477.124 174.605C478.163 175.226 479.44 175.226 480.479 174.603L539.064 139.492C541.331 138.133 541.329 134.71 539.061 133.354Z" fill="url(#paint8_linear_1894_97064)"/>
<path d="M124.934 190.468C124.934 192.521 123.27 194.185 121.218 194.185C119.165 194.185 117.501 192.521 117.501 190.468C117.501 188.416 119.165 186.752 121.218 186.752C123.27 186.752 124.934 188.416 124.934 190.468ZM124.934 328.901C124.934 330.954 123.27 332.618 121.218 332.618C119.165 332.618 117.501 330.954 117.501 328.901C117.501 326.849 119.165 325.185 121.218 325.185C123.27 325.185 124.934 326.849 124.934 328.901ZM121.564 191.073L51.2382 231.451L50.5443 230.243L120.871 189.864L121.564 191.073ZM51.3407 288.313L121.562 328.296L120.873 329.507L50.6512 289.524L51.3407 288.313ZM51.2382 231.451C29.2685 244.065 29.3257 275.778 51.3407 288.313L50.6512 289.524C27.6993 276.456 27.6397 243.394 50.5443 230.243L51.2382 231.451Z" fill="#68BEEE"/>
<path d="M218.985 399.447V324.444H90.5189V399.445C90.5189 400.769 91.1939 401.991 92.2864 402.645L153.099 439.049C154.169 439.69 155.48 439.689 156.55 439.047L217.221 402.646C218.312 401.992 218.985 400.77 218.985 399.447Z" fill="#003B7F"/>
<path d="M218.985 399.447V324.444H90.5189V399.445C90.5189 400.769 91.1939 401.991 92.2864 402.645L153.099 439.049C154.169 439.69 155.48 439.689 156.55 439.047L217.221 402.646C218.312 401.992 218.985 400.77 218.985 399.447Z" fill="url(#paint9_diamond_1894_97064)" fill-opacity="0.1" style="mix-blend-mode:darken"/>
<path d="M218.985 399.447V324.444H90.5189V399.445C90.5189 400.769 91.1939 401.991 92.2864 402.645L153.099 439.049C154.169 439.69 155.48 439.689 156.55 439.047L217.221 402.646C218.312 401.992 218.985 400.77 218.985 399.447Z" fill="url(#paint10_linear_1894_97064)" fill-opacity="0.12" style="mix-blend-mode:darken"/>
<path d="M217.223 321.671L156.413 284.789C155.336 284.136 154.015 284.136 152.939 284.79L92.2787 321.665C89.931 323.092 89.9327 326.687 92.2817 328.112L153.091 364.994C154.168 365.647 155.49 365.646 156.566 364.992L217.226 328.117C219.573 326.69 219.572 323.095 217.223 321.671Z" fill="#003B7F"/>
<path d="M541.151 394.691V322.254H417.078V394.689C417.078 395.968 417.73 397.149 418.785 397.78L477.518 432.939C478.551 433.557 479.818 433.557 480.851 432.937L539.446 397.781C540.5 397.149 541.151 395.969 541.151 394.691Z" fill="#003B7F"/>
<path d="M541.151 394.691V322.254H417.078V394.689C417.078 395.968 417.73 397.149 418.785 397.78L477.518 432.939C478.551 433.557 479.818 433.557 480.851 432.937L539.446 397.781C540.5 397.149 541.151 395.969 541.151 394.691Z" fill="url(#paint11_diamond_1894_97064)" fill-opacity="0.1" style="mix-blend-mode:darken"/>
<path d="M541.151 394.691V322.254H417.078V394.689C417.078 395.968 417.73 397.149 418.785 397.78L477.518 432.939C478.551 433.557 479.818 433.557 480.851 432.937L539.446 397.781C540.5 397.149 541.151 395.969 541.151 394.691Z" fill="url(#paint12_linear_1894_97064)" fill-opacity="0.12" style="mix-blend-mode:darken"/>
<path d="M539.448 319.574L480.718 283.953C479.679 283.323 478.402 283.324 477.363 283.955L418.778 319.569C416.51 320.947 416.512 324.419 418.781 325.795L477.51 361.415C478.55 362.046 479.827 362.045 480.866 361.414L539.451 325.8C541.718 324.422 541.717 320.95 539.448 319.574Z" fill="#003B7F"/>
<path opacity="0.5" d="M182.374 375.817C182.374 377.87 184.037 379.534 186.09 379.534C188.142 379.534 189.806 377.87 189.806 375.817C189.806 373.765 188.142 372.101 186.09 372.101C184.037 372.101 182.374 373.765 182.374 375.817ZM441.863 375.817C441.863 377.87 443.527 379.534 445.58 379.534C447.632 379.534 449.296 377.87 449.296 375.817C449.296 373.765 447.632 372.101 445.58 372.101C443.527 372.101 441.863 373.765 441.863 375.817ZM300.362 440.538L300.018 441.144L300.362 440.538ZM185.746 376.424L300.018 441.144L300.705 439.931L186.433 375.211L185.746 376.424ZM333.9 441.014L445.928 376.421L445.232 375.214L333.204 439.806L333.9 441.014ZM300.018 441.144C310.539 447.102 323.426 447.053 333.9 441.014L333.204 439.806C323.157 445.599 310.796 445.647 300.705 439.931L300.018 441.144Z" fill="#68BEEE"/>
<path d="M442.442 190.468C442.442 192.521 444.106 194.185 446.159 194.185C448.211 194.185 449.875 192.521 449.875 190.468C449.875 188.416 448.211 186.752 446.159 186.752C444.106 186.752 442.442 188.416 442.442 190.468ZM389.159 223.511L446.502 191.075L445.816 189.862L388.473 222.298L389.159 223.511Z" fill="#68BEEE"/>
<path d="M182.952 190.468C182.952 192.521 184.616 194.185 186.669 194.185C188.721 194.185 190.385 192.521 190.385 190.468C190.385 188.416 188.721 186.752 186.669 186.752C184.616 186.752 182.952 188.416 182.952 190.468ZM186.321 191.072L236.713 220.033L237.408 218.825L187.016 189.864L186.321 191.072Z" fill="#68BEEE"/>
<path d="M408.763 318.69V212.236H224.692V318.687C224.692 320.566 225.659 322.301 227.225 323.23L314.359 374.898C315.892 375.807 317.771 375.806 319.304 374.896L406.235 323.23C407.798 322.301 408.763 320.568 408.763 318.69Z" fill="url(#paint13_linear_1894_97064)"/>
<path d="M408.763 318.69V212.236H224.692V318.687C224.692 320.566 225.659 322.301 227.225 323.23L314.359 374.898C315.892 375.807 317.771 375.806 319.304 374.896L406.235 323.23C407.798 322.301 408.763 320.568 408.763 318.69Z" fill="url(#paint14_linear_1894_97064)" fill-opacity="0.2" style="mix-blend-mode:darken"/>
<path d="M406.237 205.948L319.107 153.845C317.565 152.923 315.671 152.923 314.129 153.847L227.214 205.94C223.85 207.956 223.852 213.035 227.218 215.047L314.348 267.15C315.89 268.073 317.784 268.072 319.326 267.148L406.242 215.055C409.605 213.039 409.603 207.961 406.237 205.948Z" fill="url(#paint15_linear_1894_97064)"/>
<path d="M272.153 283.142C272.153 285.195 273.816 286.858 275.869 286.858C277.921 286.858 279.585 285.195 279.585 283.142C279.585 281.09 277.921 279.426 275.869 279.426C273.816 279.426 272.153 281.09 272.153 283.142ZM275.525 282.536L195.013 328.295L195.702 329.506L276.213 283.748L275.525 282.536Z" fill="#68BEEE"/>
<path d="M361.352 284.301C361.352 286.354 363.016 288.018 365.069 288.018C367.121 288.018 368.785 286.354 368.785 284.301C368.785 282.249 367.121 280.585 365.069 280.585C363.016 280.585 361.352 282.249 361.352 284.301ZM364.723 284.907L446.972 331.823L447.663 330.613L365.414 283.696L364.723 284.907Z" fill="#68BEEE"/>
<path d="M217.222 321.673L156.412 284.79C155.336 284.138 154.014 284.138 152.938 284.792L92.2779 321.667C89.9302 323.094 89.9318 326.689 92.2808 328.114L153.091 364.996C154.167 365.649 155.489 365.648 156.565 364.994L217.225 328.119C219.573 326.692 219.571 323.097 217.222 321.673Z" fill="url(#paint16_linear_1894_97064)"/>
<path d="M539.448 319.574L480.718 283.953C479.679 283.323 478.402 283.324 477.363 283.955L418.778 319.569C416.51 320.947 416.512 324.419 418.781 325.795L477.51 361.415C478.55 362.046 479.827 362.045 480.866 361.414L539.451 325.8C541.718 324.422 541.717 320.95 539.448 319.574Z" fill="url(#paint17_linear_1894_97064)"/>
<defs>
<filter id="filter0_f_1894_97064" x="170.027" y="156.568" width="292.774" height="273.6" filterUnits="userSpaceOnUse" color-interpolation-filters="sRGB">
<feFlood flood-opacity="0" result="BackgroundImageFix"/>
<feBlend mode="normal" in="SourceGraphic" in2="BackgroundImageFix" result="shape"/>
<feGaussianBlur stdDeviation="27.1757" result="effect1_foregroundBlur_1894_97064"/>
</filter>
<filter id="filter1_f_1894_97064" x="170.027" y="99.046" width="292.774" height="225.026" filterUnits="userSpaceOnUse" color-interpolation-filters="sRGB">
<feFlood flood-opacity="0" result="BackgroundImageFix"/>
<feBlend mode="normal" in="SourceGraphic" in2="BackgroundImageFix" result="shape"/>
<feGaussianBlur stdDeviation="27.1757" result="effect1_foregroundBlur_1894_97064"/>
</filter>
<linearGradient id="paint0_linear_1894_97064" x1="523.774" y1="176.566" x2="524" y2="58" gradientUnits="userSpaceOnUse">
<stop stop-color="#68BEEE"/>
<stop offset="1" stop-color="#68BEEE" stop-opacity="0"/>
</linearGradient>
<radialGradient id="paint1_diamond_1894_97064" cx="0" cy="0" r="1" gradientUnits="userSpaceOnUse" gradientTransform="translate(316.519 231.04) rotate(90.0412) scale(144.777 259.199)">
<stop offset="0.57542" stop-opacity="0"/>
<stop offset="1"/>
</radialGradient>
<linearGradient id="paint2_linear_1894_97064" x1="226.88" y1="281.899" x2="406.157" y2="282.294" gradientUnits="userSpaceOnUse">
<stop offset="0.260417" stop-opacity="0"/>
<stop offset="0.499846"/>
<stop offset="0.729167" stop-opacity="0"/>
</linearGradient>
<radialGradient id="paint3_diamond_1894_97064" cx="0" cy="0" r="1" gradientUnits="userSpaceOnUse" gradientTransform="translate(154.823 150.363) rotate(90.0412) scale(98.0263 175.499)">
<stop offset="0.57542" stop-opacity="0"/>
<stop offset="1"/>
</radialGradient>
<linearGradient id="paint4_linear_1894_97064" x1="94.13" y1="184.799" x2="215.515" y2="185.066" gradientUnits="userSpaceOnUse">
<stop offset="0.260417" stop-opacity="0"/>
<stop offset="0.499846"/>
<stop offset="0.729167" stop-opacity="0"/>
</linearGradient>
<linearGradient id="paint5_linear_1894_97064" x1="154.752" y1="97.793" x2="154.752" y2="176.553" gradientUnits="userSpaceOnUse">
<stop stop-color="#2F76CA"/>
<stop offset="1" stop-color="#003B7F"/>
</linearGradient>
<linearGradient id="paint6_linear_1894_97064" x1="478.728" y1="137.593" x2="478.728" y2="247.688" gradientUnits="userSpaceOnUse">
<stop stop-color="#C86519"/>
<stop offset="1" stop-color="#BC6D31"/>
</linearGradient>
<linearGradient id="paint7_linear_1894_97064" x1="418.378" y1="184.983" x2="539.217" y2="185.252" gradientUnits="userSpaceOnUse">
<stop offset="0.260417" stop-opacity="0"/>
<stop offset="0.499846"/>
<stop offset="0.729167" stop-opacity="0"/>
</linearGradient>
<linearGradient id="paint8_linear_1894_97064" x1="479.898" y1="6.4139" x2="478.726" y2="175.07" gradientUnits="userSpaceOnUse">
<stop stop-color="#FBE6D7"/>
<stop offset="1" stop-color="#EB883C"/>
</linearGradient>
<radialGradient id="paint9_diamond_1894_97064" cx="0" cy="0" r="1" gradientUnits="userSpaceOnUse" gradientTransform="translate(154.825 338.486) rotate(90.0412) scale(101.043 180.899)">
<stop offset="0.57542" stop-opacity="0"/>
<stop offset="1"/>
</radialGradient>
<linearGradient id="paint10_linear_1894_97064" x1="92.2648" y1="373.982" x2="217.385" y2="374.258" gradientUnits="userSpaceOnUse">
<stop offset="0.260417" stop-opacity="0"/>
<stop offset="0.499846"/>
<stop offset="0.729167" stop-opacity="0"/>
</linearGradient>
<radialGradient id="paint11_diamond_1894_97064" cx="0" cy="0" r="1" gradientUnits="userSpaceOnUse" gradientTransform="translate(479.185 335.816) rotate(90.0412) scale(97.5865 174.712)">
<stop offset="0.57542" stop-opacity="0"/>
<stop offset="1"/>
</radialGradient>
<linearGradient id="paint12_linear_1894_97064" x1="418.764" y1="370.097" x2="539.605" y2="370.363" gradientUnits="userSpaceOnUse">
<stop offset="0.260417" stop-opacity="0"/>
<stop offset="0.499846"/>
<stop offset="0.729167" stop-opacity="0"/>
</linearGradient>
<linearGradient id="paint13_linear_1894_97064" x1="316.728" y1="212.236" x2="316.728" y2="375.579" gradientUnits="userSpaceOnUse">
<stop stop-color="#3481DC"/>
<stop offset="1" stop-color="#174882"/>
</linearGradient>
<linearGradient id="paint14_linear_1894_97064" x1="227.194" y1="282.546" x2="406.47" y2="282.945" gradientUnits="userSpaceOnUse">
<stop offset="0.260417" stop-opacity="0"/>
<stop offset="0.499846"/>
<stop offset="0.729167" stop-opacity="0"/>
</linearGradient>
<linearGradient id="paint15_linear_1894_97064" x1="318.464" y1="17.6138" x2="316.725" y2="267.841" gradientUnits="userSpaceOnUse">
<stop stop-color="white"/>
<stop offset="1" stop-color="#3481DC"/>
</linearGradient>
<linearGradient id="paint16_linear_1894_97064" x1="154.751" y1="284.301" x2="154.751" y2="365.485" gradientUnits="userSpaceOnUse">
<stop stop-color="#2F76CA"/>
<stop offset="1" stop-color="#003B7F"/>
</linearGradient>
<linearGradient id="paint17_linear_1894_97064" x1="479.114" y1="283.481" x2="479.114" y2="361.888" gradientUnits="userSpaceOnUse">
<stop stop-color="#2F76CA"/>
<stop offset="1" stop-color="#003B7F"/>
</linearGradient>
</defs>
</svg>
